<svg xmlns="http://www.w3.org/2000/svg" fill="none" viewBox="-0.5 -0.5 24 24" id="Check-Thick--Streamline-Plump.svg"
     height="24" width="24">
    <desc>Check Thick Streamline Icon: https://streamlinehq.com</desc>
    <g id="check-thick--check-form-validation-checkmark-success-add-addition-1-tick">
        <path id="Vector 7 (Stroke)" fill-rule="evenodd" stroke="#000000" stroke-linecap="round" stroke-linejoin="round"
              d="M21.658716666666667 4.563104166666666C22.167352083333334 5.25650625 22.054220833333336 6.1901625000000005 21.580900000000003 6.907954166666667C17.151243750000003 13.618635416666669 13.960952083333334 17.695385416666667 12.195797916666669 19.805108333333333C11.320264583333334 20.850889583333334 9.799581250000001 20.927699999999998 8.809335416666666 19.988820833333335C6.2301729166666675 17.536302083333332 3.806404166666667 14.925322916666666 1.5521645833333335 12.171120833333335C0.9241687500000001 11.401435416666667 0.7944104166666667 10.315212500000001 1.4058270833333333 9.532014583333334C1.9372708333333335 8.851070833333335 2.5439916666666664 8.266679166666666 3.0925416666666665 7.803756250000001C4.002383333333333 7.035652083333334 5.315970833333334 7.210020833333334 6.133908333333333 8.075683333333334C8.657775 10.749577083333334 10.178985416666666 12.6169375 10.178985416666666 12.6169375S12.679516666666668 8.963195833333334 16.6913875 3.3424270833333334C17.312627083333332 2.47206875 18.419645833333334 2.0667416666666667 19.354883333333333 2.5852C20.10588125 3.0019791666666666 20.978827083333336 3.63615625 21.658716666666667 4.562577083333334Z"
              clip-rule="evenodd" stroke-width="1"></path>
    </g>
</svg>